<mxfile host="app.diagrams.net" modified="2022-03-21T22:22:54.085Z" agent="5.0 (Windows NT 10.0; Win64; x64) AppleWebKit/537.36 (KHTML, like Gecko) Chrome/99.0.4844.74 Safari/537.36 Edg/99.0.1150.46" etag="_U2qEeicj0gAqoiG7pGT" version="17.1.3" type="github">
  <diagram id="C5RBs43oDa-KdzZeNtuy" name="Page-1">
    <mxGraphModel dx="2249" dy="772" grid="1" gridSize="10" guides="1" tooltips="1" connect="1" arrows="1" fold="1" page="1" pageScale="1" pageWidth="827" pageHeight="1169" math="0" shadow="0">
      <root>
        <mxCell id="WIyWlLk6GJQsqaUBKTNV-0" />
        <mxCell id="WIyWlLk6GJQsqaUBKTNV-1" parent="WIyWlLk6GJQsqaUBKTNV-0" />
        <mxCell id="WIyWlLk6GJQsqaUBKTNV-2" value="" style="rounded=0;html=1;jettySize=auto;orthogonalLoop=1;fontSize=11;endArrow=block;endFill=0;endSize=8;strokeWidth=1;shadow=0;labelBackgroundColor=none;edgeStyle=orthogonalEdgeStyle;startArrow=none;" parent="WIyWlLk6GJQsqaUBKTNV-1" source="pCLoATRBDx4oQu4dUXQy-24" target="WIyWlLk6GJQsqaUBKTNV-6" edge="1">
          <mxGeometry relative="1" as="geometry" />
        </mxCell>
        <mxCell id="WIyWlLk6GJQsqaUBKTNV-3" value="Start" style="rounded=1;whiteSpace=wrap;html=1;fontSize=12;glass=0;strokeWidth=1;shadow=0;" parent="WIyWlLk6GJQsqaUBKTNV-1" vertex="1">
          <mxGeometry x="-200" y="190" width="120" height="40" as="geometry" />
        </mxCell>
        <mxCell id="WIyWlLk6GJQsqaUBKTNV-6" value="Insert letter" style="rhombus;whiteSpace=wrap;html=1;shadow=0;fontFamily=Helvetica;fontSize=12;align=center;strokeWidth=1;spacing=6;spacingTop=-4;" parent="WIyWlLk6GJQsqaUBKTNV-1" vertex="1">
          <mxGeometry x="200" y="170" width="100" height="80" as="geometry" />
        </mxCell>
        <mxCell id="pCLoATRBDx4oQu4dUXQy-0" value="" style="endArrow=classic;html=1;rounded=0;exitX=1;exitY=0.5;exitDx=0;exitDy=0;entryX=0;entryY=0.5;entryDx=0;entryDy=0;" edge="1" parent="WIyWlLk6GJQsqaUBKTNV-1" source="WIyWlLk6GJQsqaUBKTNV-6" target="pCLoATRBDx4oQu4dUXQy-1">
          <mxGeometry width="50" height="50" relative="1" as="geometry">
            <mxPoint x="390" y="310" as="sourcePoint" />
            <mxPoint x="310" y="210" as="targetPoint" />
          </mxGeometry>
        </mxCell>
        <mxCell id="pCLoATRBDx4oQu4dUXQy-1" value="Correct" style="rhombus;whiteSpace=wrap;html=1;shadow=0;fontFamily=Helvetica;fontSize=12;align=center;strokeWidth=1;spacing=6;spacingTop=-4;" vertex="1" parent="WIyWlLk6GJQsqaUBKTNV-1">
          <mxGeometry x="330" y="170" width="100" height="80" as="geometry" />
        </mxCell>
        <mxCell id="pCLoATRBDx4oQu4dUXQy-5" value="yes" style="endArrow=classic;html=1;rounded=0;entryX=0;entryY=0.5;entryDx=0;entryDy=0;exitX=1;exitY=0;exitDx=0;exitDy=0;" edge="1" parent="WIyWlLk6GJQsqaUBKTNV-1" source="pCLoATRBDx4oQu4dUXQy-1" target="pCLoATRBDx4oQu4dUXQy-7">
          <mxGeometry width="50" height="50" relative="1" as="geometry">
            <mxPoint x="390" y="190" as="sourcePoint" />
            <mxPoint x="440" y="140" as="targetPoint" />
          </mxGeometry>
        </mxCell>
        <mxCell id="pCLoATRBDx4oQu4dUXQy-7" value="Add letter to word" style="rounded=1;whiteSpace=wrap;html=1;fontSize=12;glass=0;strokeWidth=1;shadow=0;" vertex="1" parent="WIyWlLk6GJQsqaUBKTNV-1">
          <mxGeometry x="460" y="110" width="120" height="40" as="geometry" />
        </mxCell>
        <mxCell id="pCLoATRBDx4oQu4dUXQy-12" value="No" style="endArrow=classic;html=1;rounded=0;exitX=1;exitY=1;exitDx=0;exitDy=0;entryX=0;entryY=0;entryDx=0;entryDy=0;" edge="1" parent="WIyWlLk6GJQsqaUBKTNV-1" source="pCLoATRBDx4oQu4dUXQy-1" target="pCLoATRBDx4oQu4dUXQy-14">
          <mxGeometry width="50" height="50" relative="1" as="geometry">
            <mxPoint x="390" y="280" as="sourcePoint" />
            <mxPoint x="450" y="270" as="targetPoint" />
          </mxGeometry>
        </mxCell>
        <mxCell id="pCLoATRBDx4oQu4dUXQy-13" value="Add body part" style="rounded=1;whiteSpace=wrap;html=1;fontSize=12;glass=0;strokeWidth=1;shadow=0;" vertex="1" parent="WIyWlLk6GJQsqaUBKTNV-1">
          <mxGeometry x="650" y="250" width="120" height="40" as="geometry" />
        </mxCell>
        <mxCell id="pCLoATRBDx4oQu4dUXQy-14" value="Can add body part" style="rhombus;whiteSpace=wrap;html=1;shadow=0;fontFamily=Helvetica;fontSize=12;align=center;strokeWidth=1;spacing=6;spacingTop=-4;" vertex="1" parent="WIyWlLk6GJQsqaUBKTNV-1">
          <mxGeometry x="450" y="250" width="100" height="80" as="geometry" />
        </mxCell>
        <mxCell id="pCLoATRBDx4oQu4dUXQy-16" value="yes" style="endArrow=classic;html=1;rounded=0;entryX=0;entryY=0.5;entryDx=0;entryDy=0;exitX=1;exitY=0;exitDx=0;exitDy=0;" edge="1" parent="WIyWlLk6GJQsqaUBKTNV-1" source="pCLoATRBDx4oQu4dUXQy-14" target="pCLoATRBDx4oQu4dUXQy-13">
          <mxGeometry width="50" height="50" relative="1" as="geometry">
            <mxPoint x="400" y="200" as="sourcePoint" />
            <mxPoint x="450" y="140" as="targetPoint" />
          </mxGeometry>
        </mxCell>
        <mxCell id="pCLoATRBDx4oQu4dUXQy-17" value="No" style="endArrow=classic;html=1;rounded=0;exitX=1;exitY=1;exitDx=0;exitDy=0;entryX=0;entryY=0.5;entryDx=0;entryDy=0;" edge="1" parent="WIyWlLk6GJQsqaUBKTNV-1" source="pCLoATRBDx4oQu4dUXQy-14" target="pCLoATRBDx4oQu4dUXQy-18">
          <mxGeometry width="50" height="50" relative="1" as="geometry">
            <mxPoint x="399" y="240" as="sourcePoint" />
            <mxPoint x="560" y="360" as="targetPoint" />
          </mxGeometry>
        </mxCell>
        <mxCell id="pCLoATRBDx4oQu4dUXQy-18" value="YOU LOSE" style="rounded=1;whiteSpace=wrap;html=1;fontSize=12;glass=0;strokeWidth=1;shadow=0;" vertex="1" parent="WIyWlLk6GJQsqaUBKTNV-1">
          <mxGeometry x="650" y="340" width="120" height="40" as="geometry" />
        </mxCell>
        <mxCell id="pCLoATRBDx4oQu4dUXQy-20" style="edgeStyle=orthogonalEdgeStyle;rounded=0;orthogonalLoop=1;jettySize=auto;html=1;entryX=0.5;entryY=0;entryDx=0;entryDy=0;exitX=0.425;exitY=-0.05;exitDx=0;exitDy=0;exitPerimeter=0;" edge="1" parent="WIyWlLk6GJQsqaUBKTNV-1" source="pCLoATRBDx4oQu4dUXQy-13" target="WIyWlLk6GJQsqaUBKTNV-6">
          <mxGeometry relative="1" as="geometry">
            <mxPoint x="650" y="50" as="targetPoint" />
            <mxPoint x="640" y="40" as="sourcePoint" />
            <Array as="points">
              <mxPoint x="971" y="198" />
              <mxPoint x="970" y="198" />
              <mxPoint x="970" y="30" />
              <mxPoint x="250" y="30" />
            </Array>
          </mxGeometry>
        </mxCell>
        <mxCell id="pCLoATRBDx4oQu4dUXQy-22" value="Generate a random word" style="rounded=1;whiteSpace=wrap;html=1;fontSize=12;glass=0;strokeWidth=1;shadow=0;" vertex="1" parent="WIyWlLk6GJQsqaUBKTNV-1">
          <mxGeometry x="-70" y="190" width="120" height="40" as="geometry" />
        </mxCell>
        <mxCell id="pCLoATRBDx4oQu4dUXQy-23" value="" style="rounded=0;html=1;jettySize=auto;orthogonalLoop=1;fontSize=11;endArrow=none;endFill=0;endSize=8;strokeWidth=1;shadow=0;labelBackgroundColor=none;edgeStyle=orthogonalEdgeStyle;" edge="1" parent="WIyWlLk6GJQsqaUBKTNV-1" source="WIyWlLk6GJQsqaUBKTNV-3" target="pCLoATRBDx4oQu4dUXQy-22">
          <mxGeometry relative="1" as="geometry">
            <mxPoint x="-80" y="210" as="sourcePoint" />
            <mxPoint x="170" y="210" as="targetPoint" />
          </mxGeometry>
        </mxCell>
        <mxCell id="pCLoATRBDx4oQu4dUXQy-24" value="Generate as many blanks as letters in word&amp;nbsp;" style="rounded=1;whiteSpace=wrap;html=1;fontSize=12;glass=0;strokeWidth=1;shadow=0;" vertex="1" parent="WIyWlLk6GJQsqaUBKTNV-1">
          <mxGeometry x="60" y="190" width="120" height="40" as="geometry" />
        </mxCell>
        <mxCell id="pCLoATRBDx4oQu4dUXQy-25" value="" style="rounded=0;html=1;jettySize=auto;orthogonalLoop=1;fontSize=11;endArrow=none;endFill=0;endSize=8;strokeWidth=1;shadow=0;labelBackgroundColor=none;edgeStyle=orthogonalEdgeStyle;startArrow=none;" edge="1" parent="WIyWlLk6GJQsqaUBKTNV-1" source="pCLoATRBDx4oQu4dUXQy-22" target="pCLoATRBDx4oQu4dUXQy-24">
          <mxGeometry relative="1" as="geometry">
            <mxPoint x="70" y="210" as="sourcePoint" />
            <mxPoint x="170" y="210" as="targetPoint" />
          </mxGeometry>
        </mxCell>
        <mxCell id="pCLoATRBDx4oQu4dUXQy-32" value="No" style="edgeStyle=orthogonalEdgeStyle;rounded=0;orthogonalLoop=1;jettySize=auto;html=1;exitX=1;exitY=0;exitDx=0;exitDy=0;" edge="1" parent="WIyWlLk6GJQsqaUBKTNV-1" source="pCLoATRBDx4oQu4dUXQy-26">
          <mxGeometry x="-0.8779" relative="1" as="geometry">
            <mxPoint x="250" y="170" as="targetPoint" />
            <Array as="points">
              <mxPoint x="685" y="30" />
              <mxPoint x="250" y="30" />
            </Array>
            <mxPoint as="offset" />
          </mxGeometry>
        </mxCell>
        <mxCell id="pCLoATRBDx4oQu4dUXQy-26" value="If word correct" style="rhombus;whiteSpace=wrap;html=1;shadow=0;fontFamily=Helvetica;fontSize=12;align=center;strokeWidth=1;spacing=6;spacingTop=-4;" vertex="1" parent="WIyWlLk6GJQsqaUBKTNV-1">
          <mxGeometry x="610" y="90" width="100" height="80" as="geometry" />
        </mxCell>
        <mxCell id="pCLoATRBDx4oQu4dUXQy-27" value="" style="endArrow=classic;html=1;rounded=0;exitX=1;exitY=0.5;exitDx=0;exitDy=0;entryX=0;entryY=0.5;entryDx=0;entryDy=0;" edge="1" parent="WIyWlLk6GJQsqaUBKTNV-1" source="pCLoATRBDx4oQu4dUXQy-7" target="pCLoATRBDx4oQu4dUXQy-26">
          <mxGeometry width="50" height="50" relative="1" as="geometry">
            <mxPoint x="390" y="290" as="sourcePoint" />
            <mxPoint x="440" y="240" as="targetPoint" />
          </mxGeometry>
        </mxCell>
        <mxCell id="pCLoATRBDx4oQu4dUXQy-28" value="YOU WIN" style="rounded=1;whiteSpace=wrap;html=1;fontSize=12;glass=0;strokeWidth=1;shadow=0;" vertex="1" parent="WIyWlLk6GJQsqaUBKTNV-1">
          <mxGeometry x="740" y="180" width="120" height="40" as="geometry" />
        </mxCell>
        <mxCell id="pCLoATRBDx4oQu4dUXQy-29" value="Yes" style="endArrow=classic;html=1;rounded=0;exitX=1;exitY=1;exitDx=0;exitDy=0;entryX=0;entryY=0.5;entryDx=0;entryDy=0;" edge="1" parent="WIyWlLk6GJQsqaUBKTNV-1" source="pCLoATRBDx4oQu4dUXQy-26" target="pCLoATRBDx4oQu4dUXQy-28">
          <mxGeometry width="50" height="50" relative="1" as="geometry">
            <mxPoint x="840" y="310" as="sourcePoint" />
            <mxPoint x="890" y="260" as="targetPoint" />
          </mxGeometry>
        </mxCell>
        <mxCell id="pCLoATRBDx4oQu4dUXQy-31" value="" style="endArrow=classic;html=1;rounded=0;" edge="1" parent="WIyWlLk6GJQsqaUBKTNV-1" source="pCLoATRBDx4oQu4dUXQy-26">
          <mxGeometry width="50" height="50" relative="1" as="geometry">
            <mxPoint x="840" y="310" as="sourcePoint" />
            <mxPoint x="710" y="130" as="targetPoint" />
          </mxGeometry>
        </mxCell>
      </root>
    </mxGraphModel>
  </diagram>
</mxfile>
